<svg width="131" height="37" viewBox="0 0 131 37" fill="none" xmlns="http://www.w3.org/2000/svg">
<g clip-path="url(#clip0_483_2522)">
<path d="M0.793791 8.68557L0.793791 4.85053C0.793791 3.48087 1.16474 2.37943 1.90664 1.54622C2.65424 0.707306 3.73 0.287848 5.1339 0.287848C6.53209 0.287848 7.60499 0.704453 8.3526 1.53766C9.1002 2.37087 9.47401 3.47516 9.47401 4.85053L9.47401 8.68557C9.47401 10.0609 9.09735 11.1652 8.34404 11.9984C7.59073 12.8316 6.52068 13.2483 5.1339 13.2483C3.73 13.2483 2.65424 12.8316 1.90664 11.9984C1.16474 11.1652 0.793791 10.0609 0.793791 8.68557ZM3.53311 8.95094C3.53311 9.63577 3.65581 10.1893 3.90121 10.6117C4.15231 11.034 4.56606 11.2451 5.14246 11.2451C5.71315 11.2451 6.12405 11.034 6.37515 10.6117C6.62626 10.1893 6.75181 9.63577 6.75181 8.95094L6.75181 4.59372C6.75181 3.90318 6.62626 3.34961 6.37515 2.933C6.12405 2.51069 5.71315 2.29954 5.14246 2.29954C4.57177 2.29954 4.16087 2.51069 3.90977 2.933C3.65866 3.34961 3.53311 3.90318 3.53311 4.59372L3.53311 8.95094ZM15.8172 13L15.8172 9.64433L15.8429 9.242L15.8429 4.08009H15.7402L12.9153 8.30036L16.5106 8.30036L17.0842 8.28324L19.7465 8.28324L19.7465 10.3035L10.2958 10.3035L10.2958 8.57429L15.8943 0.536099L18.411 0.536099L18.411 13L15.8172 13Z" fill="white"/>
<path d="M22.2093 33.6211L22.2093 32.0032L26.481 27.2094C26.9546 26.6786 27.3256 26.1993 27.5938 25.7712C27.862 25.3432 27.9962 24.8981 27.9962 24.4358C27.9962 23.9907 27.8706 23.6283 27.6195 23.3486C27.3684 23.0633 26.9946 22.9206 26.4981 22.9206C26.0016 22.9206 25.6021 23.089 25.2996 23.4257C25.0029 23.7567 24.8545 24.2675 24.8545 24.958V25.2062L22.158 25.2062V24.881C22.158 23.7053 22.5518 22.7494 23.3393 22.0132C24.1269 21.277 25.1769 20.9089 26.4895 20.9089C27.8877 20.9089 28.9407 21.2314 29.6483 21.8763C30.356 22.5154 30.7127 23.3344 30.7184 24.3331C30.7184 25.1606 30.5043 25.8911 30.0763 26.5245C29.6483 27.158 29.1261 27.8143 28.5098 28.4934L25.7277 31.5324L30.9752 31.5324L30.9752 33.6211L22.2093 33.6211ZM31.874 30.1798V29.9487L34.5192 29.9487V30.1541C34.5192 30.702 34.6675 31.13 34.9643 31.4382C35.2668 31.7407 35.7005 31.8919 36.2655 31.8919C36.8419 31.8919 37.2785 31.7378 37.5752 31.4296C37.8777 31.1158 38.0289 30.6307 38.0289 29.9744C38.0289 29.3466 37.8549 28.8758 37.5067 28.5619C37.1643 28.248 36.6564 28.0911 35.983 28.0911L34.8445 28.0911L34.8445 26.2164L35.9059 26.2164C36.4823 26.2164 36.9189 26.0651 37.2157 25.7627C37.5124 25.4602 37.6608 25.0322 37.6608 24.4786C37.6608 23.9536 37.5381 23.557 37.2927 23.2887C37.053 23.0205 36.6935 22.8864 36.2141 22.8864C35.7233 22.8864 35.3524 23.0234 35.1013 23.2973C34.8559 23.5655 34.7332 23.9536 34.7332 24.4615V24.6156L32.0966 24.6156V24.4701C32.0966 23.4656 32.4618 22.621 33.1923 21.9362C33.9285 21.2514 34.9557 20.9089 36.274 20.9089C37.6323 20.9089 38.651 21.2257 39.3301 21.8591C40.0149 22.4869 40.3573 23.2459 40.3573 24.1362C40.3573 24.8153 40.2004 25.4117 39.8865 25.9253C39.5783 26.4332 39.0933 26.8127 38.4313 27.0638V27.0981C39.1389 27.2636 39.7039 27.6089 40.1262 28.1339C40.5485 28.6589 40.7597 29.3095 40.7597 30.0857C40.7597 31.2499 40.363 32.1715 39.5698 32.8507C38.7765 33.5298 37.6637 33.8693 36.2312 33.8693C34.8045 33.8693 33.7202 33.5298 32.9783 32.8507C32.2421 32.1658 31.874 31.2756 31.874 30.1798Z" fill="white"/>
<line x1="38.2729" y1="2.10789" x2="5.79248" y2="34.5883" stroke="white" stroke-width="1.22496"/>
<line x1="74.6094" y1="17.8647" x2="56.1009" y2="17.8647" stroke="white" stroke-width="3"/>
<path d="M88.3016 8.68557V4.85053C88.3016 3.48087 88.6726 2.37943 89.4145 1.54622C90.1621 0.707306 91.2378 0.287848 92.6417 0.287848C94.0399 0.287848 95.1128 0.704453 95.8604 1.53766C96.608 2.37087 96.9818 3.47516 96.9818 4.85053V8.68557C96.9818 10.0609 96.6052 11.1652 95.8519 11.9984C95.0985 12.8316 94.0285 13.2483 92.6417 13.2483C91.2378 13.2483 90.1621 12.8316 89.4145 11.9984C88.6726 11.1652 88.3016 10.0609 88.3016 8.68557ZM91.0409 8.95094C91.0409 9.63577 91.1636 10.1893 91.409 10.6117C91.6601 11.034 92.0739 11.2451 92.6503 11.2451C93.221 11.2451 93.6319 11.034 93.883 10.6117C94.1341 10.1893 94.2596 9.63577 94.2596 8.95094V4.59372C94.2596 3.90318 94.1341 3.34961 93.883 2.933C93.6319 2.51069 93.221 2.29954 92.6503 2.29954C92.0796 2.29954 91.6687 2.51069 91.4176 2.933C91.1665 3.34961 91.0409 3.90318 91.0409 4.59372V8.95094ZM103.325 13L103.325 9.64433L103.351 9.242L103.351 4.08009H103.248L100.423 8.30036L104.018 8.30036L104.592 8.28324L107.254 8.28324V10.3035L97.8036 10.3035V8.57429L103.402 0.536099L105.919 0.536099L105.919 13L103.325 13Z" fill="white"/>
<path d="M109.717 33.6211L109.717 32.0032L113.989 27.2094C114.462 26.6786 114.833 26.1993 115.102 25.7712C115.37 25.3432 115.504 24.8981 115.504 24.4358C115.504 23.9907 115.378 23.6283 115.127 23.3486C114.876 23.0633 114.502 22.9206 114.006 22.9206C113.509 22.9206 113.11 23.089 112.807 23.4257C112.511 23.7567 112.362 24.2675 112.362 24.958L112.362 25.2062L109.666 25.2062L109.666 24.881C109.666 23.7053 110.06 22.7494 110.847 22.0132C111.635 21.277 112.685 20.9089 113.997 20.9089C115.396 20.9089 116.448 21.2314 117.156 21.8763C117.864 22.5154 118.22 23.3344 118.226 24.3331C118.226 25.1606 118.012 25.8911 117.584 26.5245C117.156 27.158 116.634 27.8143 116.018 28.4934L113.235 31.5324L118.483 31.5324L118.483 33.6211L109.717 33.6211ZM119.382 30.1798V29.9487L122.027 29.9487V30.1541C122.027 30.702 122.175 31.13 122.472 31.4382C122.775 31.7407 123.208 31.8919 123.773 31.8919C124.35 31.8919 124.786 31.7378 125.083 31.4296C125.385 31.1158 125.537 30.6307 125.537 29.9744C125.537 29.3466 125.363 28.8758 125.015 28.5619C124.672 28.248 124.164 28.0911 123.491 28.0911L122.352 28.0911V26.2164L123.414 26.2164C123.99 26.2164 124.427 26.0651 124.723 25.7627C125.02 25.4602 125.169 25.0322 125.169 24.4786C125.169 23.9536 125.046 23.557 124.801 23.2887C124.561 23.0205 124.201 22.8864 123.722 22.8864C123.231 22.8864 122.86 23.0234 122.609 23.2973C122.364 23.5655 122.241 23.9536 122.241 24.4615V24.6156L119.604 24.6156V24.4701C119.604 23.4656 119.97 22.621 120.7 21.9362C121.436 21.2514 122.464 20.9089 123.782 20.9089C125.14 20.9089 126.159 21.2257 126.838 21.8591C127.523 22.4869 127.865 23.2459 127.865 24.1362C127.865 24.8153 127.708 25.4117 127.394 25.9253C127.086 26.4332 126.601 26.8127 125.939 27.0638V27.0981C126.647 27.2636 127.212 27.6089 127.634 28.1339C128.056 28.6589 128.267 29.3095 128.267 30.0857C128.267 31.2499 127.871 32.1715 127.078 32.8507C126.284 33.5298 125.171 33.8693 123.739 33.8693C122.312 33.8693 121.228 33.5298 120.486 32.8507C119.75 32.1658 119.382 31.2756 119.382 30.1798Z" fill="white"/>
<line x1="125.781" y1="2.10789" x2="93.3003" y2="34.5883" stroke="white" stroke-width="1.22496"/>
</g>
<defs>
<clipPath id="clip0_483_2522">
<rect width="130.305" height="36.9857" fill="white" transform="translate(0.203125)"/>
</clipPath>
</defs>
</svg>
