<svg width="84" height="108" viewBox="0 0 84 108" fill="none" xmlns="http://www.w3.org/2000/svg">
<g clip-path="url(#clip0_232_7)">
<path d="M3.03516 8.96094C18.4901 8.96094 64.855 8.96093 80.31 8.96093" stroke="white" stroke-width="3"/>
<path d="M3.10742 13.9092C18.5624 13.9092 64.9273 13.9092 80.3822 13.9092" stroke="white" stroke-width="3"/>
<path d="M4.57812 97.7983C19.43 97.7983 63.9857 97.7983 78.8375 97.7983" stroke="white" stroke-width="3"/>
<path d="M4.57812 92.3821C19.43 92.3821 63.9857 92.3821 78.8375 92.3821" stroke="white" stroke-width="2"/>
<path d="M4.57812 88.4114C19.43 88.4114 63.9857 88.4114 78.8375 88.4114" stroke="white"/>
<path d="M4.57812 17.8796C19.43 17.8796 63.9857 17.8796 78.8375 17.8796" stroke="white"/>
<rect x="3" y="3" width="77.3457" height="101.25" stroke="white" stroke-width="6"/>
<path d="M13.3125 76.2523V64.9912C15.7964 64.9912 17.5972 64.5219 18.715 63.5835C19.8327 62.6451 20.3916 60.8933 20.3916 58.3283V5.87012H33.1527L33.2458 58.8914C33.2458 65.7106 31.7244 70.3089 28.6817 72.6863C25.701 75.0636 20.5779 76.2523 13.3125 76.2523Z" fill="white"/>
<path d="M51.8121 73.2424C46.489 73.2424 42.6108 71.7868 40.1774 68.8755C37.744 65.9132 36.5273 60.6525 36.5273 53.0934C36.5273 45.4833 37.9215 40.2481 40.7097 37.3879C43.5487 34.5277 48.4408 33.0977 55.3861 33.0977C58.4786 33.0977 62.5089 33.353 67.4771 33.8638L70.2146 34.0936V88.4116H60.0248V71.1739C56.7803 72.5529 54.0427 73.2424 51.8121 73.2424ZM55.3861 41.9847C51.9895 41.9847 49.6829 42.8785 48.4662 44.6661C47.3002 46.4026 46.7172 49.416 46.7172 53.7063C46.7172 60.6014 48.8717 64.049 53.1809 64.049C55.2087 64.049 57.1605 63.7936 59.0362 63.2828L60.0248 63.053V42.2911C58.1491 42.0868 56.6028 41.9847 55.3861 41.9847Z" fill="white"/>
<line x1="65.064" y1="101.395" x2="65.064" y2="36.285" stroke="white" stroke-width="10.0595"/>
</g>
<defs>
<clipPath id="clip0_232_7">
<rect width="83.3457" height="107.25" fill="white"/>
</clipPath>
</defs>
</svg>
